<svg viewBox="0 0 1024 1024" xmlns="http://www.w3.org/2000/svg">
    <path fill-rule="evenodd" clip-rule="evenodd"
        d="M125 0C55.9644 0 0 55.9644 0 125V899C0 968.036 55.9644 1024 125 1024H899C968.036 1024 1024 968.036 1024 899V125C1024 55.9644 968.036 0 899 0H125ZM585.143 146.286H438.857V292.571L292.571 292.571V438.857H146.286V585.143H292.571L292.571 731.429H438.857V877.714H585.143V731.429H731.429V585.143H877.714V438.857H731.429V292.571L585.143 292.571V146.286ZM585.143 731.429H438.857V585.143H292.571L292.571 438.857L292.572 585.143H438.857V731.428L585.143 731.429ZM438.857 292.571L438.857 438.857L585.143 438.857H438.857V292.571Z" />
</svg>
